<?xml version="1.0" encoding="utf-8"?>
<!-- Generator: Adobe Illustrator 25.4.1, SVG Export Plug-In . SVG Version: 6.00 Build 0)  -->
<svg version="1.1" id="Layer_1" xmlns="http://www.w3.org/2000/svg" xmlns:xlink="http://www.w3.org/1999/xlink" x="0px" y="0px"
	 viewBox="0 0 174.22 43.81" style="enable-background:new 0 0 174.22 43.81;" xml:space="preserve">
<style type="text/css">
	.st0{fill:#FFFFFF;}
</style>
<polyline class="st0" points="53.29,43.63 49.28,43.63 49.28,43.03 50.37,43.03 50.37,34.78 49.28,34.78 49.28,34.18 53.29,34.18 
	53.29,34.78 52.21,34.78 52.21,43.03 53.29,43.03 53.29,43.63 "/>
<polyline class="st0" points="68.91,43.78 67.9,43.78 62.92,36.77 62.92,43.03 64.05,43.03 64.05,43.63 60.82,43.63 60.82,43.03 
	62.01,43.03 62.01,35.51 61.55,34.78 60.52,34.78 60.52,34.18 63.37,34.18 68,40.78 68,34.78 66.87,34.78 66.87,34.18 70.11,34.18 
	70.11,34.78 68.91,34.78 68.91,43.78 "/>
<path class="st0" d="M78.73,43.76h-0.79v-2.58h0.79v1.06c0.64,0.51,1.13,0.7,1.83,0.7c0.89,0,1.53-0.53,1.53-1.27
	c0-0.64-0.42-1.1-1.75-1.96c-1.4-0.89-1.57-1.03-1.95-1.46c-0.36-0.42-0.54-0.99-0.54-1.62c0-1.57,1.16-2.62,2.91-2.62
	c0.56,0,1,0.08,1.54,0.31v-0.43h0.77v2.45h-0.77v-0.99c-0.6-0.39-0.99-0.53-1.52-0.53c-0.74,0-1.32,0.53-1.32,1.2
	c0,0.57,0.33,0.93,1.7,1.8c0.66,0.43,1.07,0.69,1.23,0.8c0.33,0.23,0.63,0.54,0.87,0.93c0.27,0.44,0.4,0.92,0.4,1.47
	c0,1.63-1.19,2.78-2.86,2.78c-0.83,0-1.43-0.17-2.09-0.56V43.76"/>
<polyline class="st0" points="97.44,43.63 92.83,43.63 92.83,43.03 94.22,43.03 94.22,35.02 91.74,35.02 91.74,36.21 90.95,36.21 
	90.95,33.78 91.74,33.78 91.74,34.18 98.53,34.18 98.53,33.78 99.31,33.78 99.31,36.21 98.53,36.21 98.53,35.02 96.06,35.02 
	96.06,43.03 97.44,43.03 97.44,43.63 "/>
<polyline class="st0" points="109.5,43.63 105.49,43.63 105.49,43.03 106.58,43.03 106.58,34.78 105.49,34.78 105.49,34.18 
	109.5,34.18 109.5,34.78 108.43,34.78 108.43,43.03 109.5,43.03 109.5,43.63 "/>
<polyline class="st0" points="121.89,43.63 117.28,43.63 117.28,43.03 118.67,43.03 118.67,35.02 116.2,35.02 116.2,36.21 
	115.41,36.21 115.41,33.78 116.2,33.78 116.2,34.18 122.98,34.18 122.98,33.78 123.77,33.78 123.77,36.21 122.98,36.21 
	122.98,35.02 120.52,35.02 120.52,43.03 121.89,43.03 121.89,43.63 "/>
<path class="st0" d="M140.66,34.78h-1.2v5.38c0,1.62-0.56,2.63-1.78,3.21c-0.63,0.29-1.33,0.44-2.08,0.44
	c-2.32,0-3.82-1.28-3.82-3.25v-5.78h-1.09v-0.6h4.01v0.6h-1.07v5.34c0,1.45,0.26,2.1,0.99,2.49c0.34,0.17,0.76,0.27,1.19,0.27
	c1.72,0,2.72-1.02,2.72-2.76v-5.33h-1.19v-0.61h3.32V34.78"/>
<polyline class="st0" points="153.85,43.63 149.24,43.63 149.24,43.03 150.63,43.03 150.63,35.02 148.15,35.02 148.15,36.21 
	147.36,36.21 147.36,33.78 148.15,33.78 148.15,34.18 154.94,34.18 154.94,33.78 155.72,33.78 155.72,36.21 154.94,36.21 
	154.94,35.02 152.47,35.02 152.47,43.03 153.85,43.03 153.85,43.63 "/>
<polyline class="st0" points="169.47,43.63 162.65,43.63 162.65,43.03 163.74,43.03 163.74,34.78 162.65,34.78 162.65,34.18 
	168.55,34.18 168.55,33.78 169.32,33.78 169.32,36.05 168.57,36.05 168.57,35.02 165.59,35.02 165.59,38.4 167.88,38.4 
	167.88,37.43 168.65,37.41 168.65,40.23 167.88,40.25 167.88,39.25 165.59,39.25 165.59,42.78 168.69,42.78 168.69,41.72 
	169.47,41.72 169.47,43.63 "/>
<path class="st0" d="M47.65,27.07V25.6h2.98V2.31h-2.98V0.83h12.08c3.62,0,6.56,2.9,6.56,6.52c0,2.98-2.62,5.6-5.84,5.88
	c1.63,0.2,2.23,0.36,3.22,0.83c2.46,1.15,3.9,3.46,3.9,6.16c0,3.9-3.02,6.84-7.07,6.84H47.65L47.65,27.07z M54.13,12.56h4.05
	c2.58,0,4.41-2.11,4.41-5.05c0-2.78-1.71-4.85-4.06-4.85h-4.41V12.56L54.13,12.56z M54.13,25.28h4.45c3.34,0,5.37-1.99,5.37-5.25
	c0-3.3-2.27-5.68-5.37-5.68h-4.45V25.28"/>
<path class="st0" d="M94.59,27.07h-3.38c-2.34,0-2.78-0.24-4.09-2.34l-5.92-9.42h-3.1V25.6h2.98v1.47h-9.46V25.6h2.98V2.31h-2.98
	V0.83h11.05c3.85,0,6.04,1.07,7.24,3.54c0.51,1.07,0.79,2.27,0.79,3.54c0,3.86-2.15,6.32-5.96,6.88l5.73,8.82
	c0.95,1.47,1.59,1.95,2.58,1.95h1.55V27.07L94.59,27.07z M78.09,13.47h3.81c3.02,0,5.13-2.23,5.13-5.49c0-3.42-1.87-5.33-5.21-5.33
	h-3.74V13.47"/>
<path class="st0" d="M95.66,13.99c0-7.47,5.8-13.63,12.84-13.63c6.92,0,12.72,6.2,12.72,13.59c0,7.39-5.8,13.63-12.72,13.63
	C101.5,27.58,95.66,21.38,95.66,13.99L95.66,13.99z M99.6,13.95c0,6.72,3.74,11.57,8.9,11.57c5.09,0,8.79-4.89,8.79-11.57
	c0-6.68-3.7-11.53-8.74-11.53C103.33,2.43,99.6,7.19,99.6,13.95"/>
<path class="st0" d="M146.99,27.07h-9.06V25.6h3.18l-2.78-7.15l-10.17-0.04l-2.9,7.15h3.3v1.51h-7.59v-1.51h2.07L133.36,0h1.43
	l9.94,25.56h2.27V27.07L146.99,27.07z M137.65,16.53L133.4,5.37l-4.49,11.17H137.65"/>
<path class="st0" d="M149.5,27.07V25.6h2.98V2.31h-2.98V0.83h11.73c7.15,0,13,5.88,13,13.08c0,7.35-5.72,13.16-13.04,13.16H149.5
	L149.5,27.07z M155.98,25.08h4.77c5.45,0,9.58-4.81,9.54-11.13c0-6.12-4.21-11.09-9.46-11.09h-4.85V25.08"/>
<g>
	<g>
		<polygon class="st0" points="0,31.52 0,31.52 0,22.34 0,22.34 		"/>
	</g>
</g>
<g>
	<g>
		<g>
			<path class="st0" d="M19,16.72c6.39-3.76,13.25-6.75,20.46-8.87V2.34h-5.14c-7.89,2.56-15.3,6.07-22.08,10.41
				C14.42,14.16,16.68,15.49,19,16.72z"/>
			<path class="st0" d="M39.45,27.22c-3.66-1.08-7.22-2.38-10.68-3.9c-2.81,1.1-5.54,2.33-8.2,3.67c5.93,3.02,12.26,5.44,18.88,7.19
				V27.22z"/>
			<path class="st0" d="M5.53,17.46c1.9,1.48,3.88,2.89,5.9,4.23c2.02-1.47,4.11-2.87,6.24-4.17c-2.15-1.32-4.24-2.72-6.27-4.21
				C9.4,14.62,7.43,16,5.53,17.46z"/>
			<path class="st0" d="M10.7,22.23c-1.9-1.42-3.74-2.91-5.53-4.47c-1.8,1.4-3.53,2.87-5.21,4.4v0.05c1.69,1.54,3.44,3.03,5.24,4.44
				C6.98,25.11,8.81,23.63,10.7,22.23z"/>
			<path class="st0" d="M19.06,27.8c-2.31,1.22-4.56,2.52-6.74,3.91c8.2,5.27,17.34,9.33,27.13,11.93v-6.98
				C32.27,34.55,25.43,31.56,19.06,27.8z"/>
			<path class="st0" d="M28.77,21.23c3.46-1.51,7.03-2.81,10.68-3.89v-7.02c-6.64,1.75-12.98,4.17-18.94,7.18
				C23.19,18.88,25.94,20.12,28.77,21.23z"/>
			<path class="st0" d="M12.28,22.23c2.19,1.41,4.45,2.73,6.77,3.97c2.41-1.42,4.88-2.73,7.42-3.92c-2.55-1.2-5.03-2.53-7.45-3.96
				C16.71,19.54,14.46,20.84,12.28,22.23z"/>
			<path class="st0" d="M39.45,24.74v-4.89c-2.67,0.71-5.3,1.52-7.87,2.44C34.15,23.21,36.78,24.03,39.45,24.74z"/>
			<path class="st0" d="M17.73,26.99c-2.15-1.32-4.24-2.72-6.27-4.21c-2.02,1.32-3.99,2.7-5.88,4.16c1.91,1.48,3.88,2.89,5.91,4.22
				C13.5,29.69,15.59,28.3,17.73,26.99z"/>
			<path class="st0" d="M-0.05,3.37v9.36c1.68,1.53,3.41,3.02,5.21,4.44c1.78-1.54,3.61-3.02,5.49-4.42
				C6.86,9.91,3.29,6.76-0.05,3.37z"/>
			<path class="st0" d="M11.49,32.27c-4.1,2.68-7.95,5.66-11.54,8.91v2.57h32.5C24.97,40.84,17.93,36.98,11.49,32.27z"/>
			<path class="st0" d="M11.39,12.2c5.33-3.89,11.07-7.19,17.13-9.86H-0.05v0.94C3.51,6.53,7.33,9.52,11.39,12.2z"/>
			<path class="st0" d="M10.73,31.71c-1.9-1.42-3.74-2.91-5.53-4.47c-1.81,1.41-3.55,2.89-5.25,4.42v9.41
				C3.32,37.69,6.91,34.55,10.73,31.71z"/>
			<path class="st0" d="M4.83,17.46c-1.68-1.48-3.3-3.03-4.88-4.63v9.22C1.53,20.46,3.15,18.93,4.83,17.46z"/>
			<path class="st0" d="M-0.05,22.3v9.27c1.59-1.6,3.22-3.15,4.91-4.63C3.17,25.45,1.54,23.9-0.05,22.3z"/>
		</g>
	</g>
</g>
</svg>
