<svg height='100px' width='100px'  fill="#FFFFFF" xmlns="http://www.w3.org/2000/svg" xmlns:xlink="http://www.w3.org/1999/xlink" version="1.1" x="0px" y="0px" viewBox="-247 370.9 100 100" enable-background="new -247 370.9 100 100" xml:space="preserve"><path d="M-197,380c-22.6,0-40.9,18.3-40.9,40.9s18.3,40.9,40.9,40.9s40.9-18.3,40.9-40.9S-174.4,380-197,380z M-197,458.4  c-20.7,0-37.5-16.8-37.5-37.5s16.8-37.5,37.5-37.5s37.5,16.8,37.5,37.5S-176.3,458.4-197,458.4z"></path><path d="M-197,385c-19.8,0-35.9,16.1-35.9,35.9s16.1,35.9,35.9,35.9s35.9-16.1,35.9-35.9S-177.2,385-197,385z M-192.4,444.1  c-0.9,1.8-2.7,2.9-4.7,2.9c0,0,0,0,0,0c-2,0-3.8-1.1-4.7-2.9c-5.5-10.8-11.3-21.5-17.4-31.9c4.5-1.1,6.8-1.7,11.3-2.7  c4.5,8.1,6.7,12.2,10.9,20.4c5.8-11.3,12-22.4,18.5-33.3c2.9,4,4.3,6.1,7.1,10.1C-178.8,419.1-185.7,431.5-192.4,444.1z"></path></svg>